<svg id="Livello_1" data-name="Livello 1" xmlns="http://www.w3.org/2000/svg" viewBox="0 0 211.68 53.28"><defs><style>.cls-1{fill:#1d1d1b;}</style></defs><path class="cls-1" d="M219.7,87.84h5.54L234.1,139h-6.91L225,124H204.56L196,139H189.1Zm4.61,31.1-3.39-23.61-13.48,23.61Z" transform="translate(-189.1 -86.4)"/><path class="cls-1" d="M258.36,139.68A11.57,11.57,0,0,1,246.91,132l-1.51,7h-5.61L251,86.4h6.33l-4.75,22.69a24.83,24.83,0,0,1,6.73-5.86,15.46,15.46,0,0,1,8-2.21,11,11,0,0,1,6.95,2.14,13.21,13.21,0,0,1,4.17,5.61,19.63,19.63,0,0,1,1.41,7.47,22.51,22.51,0,0,1-1.8,8.93,25.92,25.92,0,0,1-4.86,7.51,23.51,23.51,0,0,1-6.88,5.14A17.71,17.71,0,0,1,258.36,139.68Zm-.21-5.47a11.67,11.67,0,0,0,5.47-1.39,17,17,0,0,0,4.79-3.78,19.2,19.2,0,0,0,3.38-5.41,16.1,16.1,0,0,0,1.26-6.24,13.78,13.78,0,0,0-1-5.34,9.9,9.9,0,0,0-3-4,7.58,7.58,0,0,0-4.83-1.53,10.71,10.71,0,0,0-4.86,1.21,18.51,18.51,0,0,0-4.46,3.16,26.3,26.3,0,0,0-3.64,4.31L248.93,126a7.33,7.33,0,0,0,1.26,4.16,9,9,0,0,0,3.35,3A9.64,9.64,0,0,0,258.15,134.21Z" transform="translate(-189.1 -86.4)"/><path class="cls-1" d="M290.91,101.59h6.33l-8,37.37h-6.34Zm3.16-15h6.34l-1.66,7.92h-6.33Z" transform="translate(-189.1 -86.4)"/><path class="cls-1" d="M306.89,139.68a6.7,6.7,0,0,1-4.61-1.48,5.32,5.32,0,0,1-1.66-4.16,6.6,6.6,0,0,1,.11-1.16,11.44,11.44,0,0,0,.18-1.15l9.58-45.33h6.26l-9.07,43c-.05.24-.08.47-.11.68s0,.45,0,.69q0,3.1,3.24,3.11a8.86,8.86,0,0,0,1.91-.25,15.49,15.49,0,0,0,2.05-.61l-.22,5.11a20.79,20.79,0,0,1-3.78,1.08A20.08,20.08,0,0,1,306.89,139.68Z" transform="translate(-189.1 -86.4)"/><path class="cls-1" d="M327.34,101.59h6.33l-8,37.37h-6.33Zm3.16-15h6.34l-1.65,7.92h-6.34Z" transform="translate(-189.1 -86.4)"/><path class="cls-1" d="M338.71,133.92a7.51,7.51,0,0,1,.08-1c0-.36.09-.71.14-1l5.4-25.27h-4.9l1.08-5h4.83L348,89.06h6.34l-2.67,12.53h8l-1.09,5h-7.91l-5,23.33a4,4,0,0,0-.11.54,3.12,3.12,0,0,0,0,.54,2.5,2.5,0,0,0,.94,2.19,3.76,3.76,0,0,0,2.3.69,8.17,8.17,0,0,0,2.34-.33,16.78,16.78,0,0,0,2-.68c.58-.24,1-.43,1.3-.58l.36,5a13,13,0,0,1-2.31,1.16,17.27,17.27,0,0,1-3.24.9,21.6,21.6,0,0,1-3.74.32,8,8,0,0,1-4.82-1.4A5,5,0,0,1,338.71,133.92Z" transform="translate(-189.1 -86.4)"/><path class="cls-1" d="M374.14,139.68a12.21,12.21,0,0,1-7.2-2.11,13.33,13.33,0,0,1-4.61-5.64,18.73,18.73,0,0,1-1.58-7.76,22.67,22.67,0,0,1,1.69-8.65,25.12,25.12,0,0,1,4.6-7.39,23.26,23.26,0,0,1,6.67-5.19,16.94,16.94,0,0,1,7.84-1.92,11,11,0,0,1,7.2,2.35,12.63,12.63,0,0,1,4,5.72l1.65-7.5h6.34l-6.34,29.34c-.05.19-.08.36-.11.5a3,3,0,0,0,0,.42c0,.85.53,1.3,1.58,1.35l-1.15,5.47c-.53.05-1,.11-1.4.18a6.82,6.82,0,0,1-1.12.11,4.62,4.62,0,0,1-3.06-.89,2.78,2.78,0,0,1-1-2.2,7.21,7.21,0,0,1,.07-1c0-.36.12-.8.21-1.3s.22-1.05.36-1.65a20.69,20.69,0,0,1-6.8,5.65A16.91,16.91,0,0,1,374.14,139.68Zm2.73-5.47a10.57,10.57,0,0,0,3.42-.64,16.73,16.73,0,0,0,3.6-1.78,17.13,17.13,0,0,0,3.21-2.67,11,11,0,0,0,2.16-3.23l2.23-10.72a9.49,9.49,0,0,0-1.66-4.38,10.82,10.82,0,0,0-3.34-3.13,8.2,8.2,0,0,0-4.22-1.17,11.62,11.62,0,0,0-5.69,1.46,16.73,16.73,0,0,0-4.71,3.88,19.53,19.53,0,0,0-3.24,5.38,15.9,15.9,0,0,0-1.19,6,13.2,13.2,0,0,0,1.15,5.56,9.82,9.82,0,0,0,3.28,4A8.43,8.43,0,0,0,376.87,134.21Zm1.51-47.81h6.2L387,93.67l-4.4,1.44Z" transform="translate(-189.1 -86.4)"/></svg>