<?xml version="1.0" encoding="utf-8"?>
<!-- Generator: Adobe Illustrator 24.2.3, SVG Export Plug-In . SVG Version: 6.00 Build 0)  -->
<svg version="1.1" id="Livello_1" xmlns="http://www.w3.org/2000/svg" xmlns:xlink="http://www.w3.org/1999/xlink" x="0px" y="0px"
	 viewBox="0 0 800 800" style="enable-background:new 0 0 800 800;" xml:space="preserve">
<style type="text/css">
	.st0{fill-rule:evenodd;clip-rule:evenodd;fill:#FFFFFF;}
</style>
<path class="st0" d="M200,233.3c0,27.6-22.4,50-50,50c-14.2,0.1-27.7-6-37-16.7H33.3C14.9,266.7,0,251.7,0,233.3S14.9,200,33.3,200
	H113c9.3-10.7,22.8-16.7,37-16.7C177.6,183.3,200,205.7,200,233.3z M200,566.7c0,27.6-22.4,50-50,50c-14.2,0.1-27.7-6-37-16.7H33.3
	C14.9,600,0,585.1,0,566.7s14.9-33.3,33.3-33.3H113c9.3-10.7,22.8-16.7,37-16.7C177.6,516.7,200,539.1,200,566.7z"/>
<path class="st0" d="M633.3,66.7v666.7c-0.1,36.8-29.9,66.6-66.7,66.7H100c-36.8-0.1-66.6-29.9-66.7-66.7V700
	c0-18.4,14.9-33.3,33.3-33.3S100,681.6,100,700v16.7c0,9.2,7.5,16.7,16.7,16.7H550c9.2,0,16.7-7.5,16.7-16.7V83.3
	c0-9.2-7.5-16.7-16.7-16.7H116.7c-9.2,0-16.7,7.5-16.7,16.7V100c0,18.4-14.9,33.3-33.3,33.3S33.3,118.4,33.3,100V66.7
	C33.4,29.9,63.2,0.1,100,0h466.7C603.4,0.1,633.2,29.9,633.3,66.7z"/>
<path class="st0" d="M200,400c0,27.6-22.4,50-50,50c-14.2,0.1-27.7-6-37-16.7H33.3C14.9,433.3,0,418.4,0,400
	c0-18.4,14.9-33.3,33.3-33.3H113c9.3-10.7,22.8-16.7,37-16.7C177.6,350,200,372.4,200,400z M435.6,438.9c-6.6,0.1-13-1.5-18.8-4.6
	c-5.6-3.3-9.7-8.6-11.4-14.8c-5.2,6.3-11.8,11.3-19.2,14.8c-6.9,3-14.3,4.5-21.8,4.5c-5.8,0.1-11.5-1.1-16.8-3.3
	c-4.6-2-8.7-5-12-8.7c-3.3-3.8-5.8-8.3-7.2-13.1c-1.6-5.3-2.4-10.8-2.4-16.3c0-5.6,0.8-11.2,2.2-16.7c1.5-5.7,3.7-11.1,6.7-16.2
	c6.3-11.1,15.5-20.4,26.7-26.7c6.5-3.5,13.3-6.1,20.5-7.8c8.1-2,16.5-3,24.8-2.9c6.9-0.1,13.7,0.5,20.4,1.7c5.6,1.1,11,2.8,16.3,4.9
	L428.8,387c-1.4,4.9-2.2,9.9-2.4,15c-0.1,3.2,0.6,6.3,1.9,9.2c1.1,2.1,3,3.8,5.2,4.7c2.5,0.9,5.1,1.3,7.7,1.3
	c4.3-0.1,8.5-1.4,12-3.9c4.1-2.8,7.5-6.4,10-10.7c3.1-5.1,5.4-10.6,6.8-16.4c1.8-6.8,2.6-13.7,2.6-20.7c0.3-11.3-1.8-22.6-6.1-33.1
	c-3.9-9.2-9.9-17.3-17.4-23.8c-7.8-6.6-16.9-11.4-26.7-14.4c-11-3.3-22.4-4.9-33.9-4.8c-12.8-0.1-25.6,2.3-37.5,7.1
	c-11.2,4.5-21.4,11.1-30,19.5c-8.5,8.3-15.2,18.2-19.8,29.2c-4.8,11.5-7.2,23.8-7.1,36.2c-0.3,14.2,2.4,28.3,7.8,41.5
	c4.9,11.5,12.2,21.7,21.5,30c9.4,8.2,20.3,14.3,32.2,18c12.9,4.1,26.4,6.2,40,6c7.4,0,14.8-0.4,22.1-1.2c6.4-0.7,12.7-1.8,18.9-3.3
	c5.3-1.3,10.5-2.8,15.7-4.7c4.3-1.6,8.5-3.5,12.6-5.7c2.1-1.4,4.6-1.8,7.1-1.3c2.1,0.6,3.8,2.2,4.5,4.3l5.2,12.8
	c-11.7,7-24.2,12.3-37.3,16c-15.8,4.3-32.2,6.3-48.6,6c-17.5,0.2-34.9-2.6-51.5-8.2c-15.1-5-29.1-13-41.1-23.5
	c-11.6-10.3-20.8-23.1-27-37.3c-6.7-15.6-9.9-32.5-9.6-49.5c0-10.2,1.4-20.3,4.2-30c2.8-9.6,6.8-18.7,12.1-27.2
	c5.3-8.5,11.6-16.4,18.9-23.3c7.4-7.1,15.7-13.2,24.6-18.3c19-10.6,40.5-16.1,62.2-16c14.2,0,28.4,2.3,41.9,6.8
	c12.9,4.3,25,10.9,35.5,19.5c10.3,8.5,18.7,19.1,24.7,31.1c6.3,12.9,9.5,27,9.3,41.3c0.1,9.8-1.6,19.6-4.8,28.8
	c-3,8.6-7.6,16.5-13.5,23.3c-5.7,6.5-12.6,11.8-20.4,15.6C453.2,437,444.5,439,435.6,438.9z M372,415.9c2.7,0,5.4-0.4,8.1-1.1
	c2.8-0.8,5.5-2.2,7.7-4.1c2.6-2.2,4.9-4.9,6.7-7.8c2.3-3.8,4-7.9,5-12.2l11.4-40.6c-3.3-0.6-6.6-0.9-10-0.9
	c-6.2,0-12.3,1.3-17.8,3.9c-5.4,2.5-10.3,6.1-14.3,10.5c-4.1,4.4-7.3,9.6-9.6,15.2c-2.3,5.6-3.5,11.7-3.5,17.8
	c-0.3,5.1,1.2,10.2,4.2,14.3C362.8,414.2,367.3,416.1,372,415.9L372,415.9z"/>
</svg>
