<svg id="Livello_1" data-name="Livello 1" xmlns="http://www.w3.org/2000/svg" viewBox="0 0 259.41 53.06"><defs><style>.cls-1{fill:#1d1d1b;}</style></defs><path class="cls-1" d="M188.85,225.72a17.24,17.24,0,0,1-8.07-1.8A17.47,17.47,0,0,1,175,219.1a20.89,20.89,0,0,1-3.49-6.84,26.76,26.76,0,0,1-1.16-7.78,30.15,30.15,0,0,1,1.3-8.68,33.39,33.39,0,0,1,3.78-8.31,31.7,31.7,0,0,1,6-7,27.15,27.15,0,0,1,7.91-4.83,25.91,25.91,0,0,1,9.62-1.76q7,0,11.09,3.2a15,15,0,0,1,5.32,8l-5.4,3.1a11.46,11.46,0,0,0-2.77-5.22A9.59,9.59,0,0,0,203,180.4a17.45,17.45,0,0,0-4.94-.69,18.94,18.94,0,0,0-9.36,2.2,20.18,20.18,0,0,0-6.58,5.76,25.76,25.76,0,0,0-3.93,7.77,28.11,28.11,0,0,0-1.29,8.25,21.2,21.2,0,0,0,1.51,8.1,13.51,13.51,0,0,0,4.46,5.9,11.57,11.57,0,0,0,7.13,2.2,16.35,16.35,0,0,0,5.36-1,19.55,19.55,0,0,0,5.37-3,20,20,0,0,0,4.6-5.07l4.76,3a24.17,24.17,0,0,1-6.12,6.7,26.09,26.09,0,0,1-7.53,3.92A24.77,24.77,0,0,1,188.85,225.72Z" transform="translate(-170.34 -173.02)"/><path class="cls-1" d="M230.61,226.08a15.14,15.14,0,0,1-8.35-2.14,13.18,13.18,0,0,1-4.94-5.72,18.8,18.8,0,0,1-1.62-7.86,22.79,22.79,0,0,1,1.73-8.86,23.43,23.43,0,0,1,4.79-7.33,22.24,22.24,0,0,1,7.09-5,20.92,20.92,0,0,1,8.57-1.78,15.26,15.26,0,0,1,8.39,2.14,13.31,13.31,0,0,1,5,5.72,18.52,18.52,0,0,1,1.66,7.93A22.63,22.63,0,0,1,251.2,212a23.28,23.28,0,0,1-4.82,7.33,22.83,22.83,0,0,1-7.13,5A21.12,21.12,0,0,1,230.61,226.08Zm1.08-5.47a12.93,12.93,0,0,0,5.43-1.21,14.39,14.39,0,0,0,4.68-3.46,17.55,17.55,0,0,0,3.28-5.24,17.24,17.24,0,0,0,1.22-6.55,14.68,14.68,0,0,0-1.08-5.81,9.06,9.06,0,0,0-3.16-4,8.9,8.9,0,0,0-5.19-1.46,12.21,12.21,0,0,0-5.4,1.25,15.48,15.48,0,0,0-4.68,3.49,16.84,16.84,0,0,0-3.31,5.27,17.36,17.36,0,0,0-1.22,6.59,14.68,14.68,0,0,0,1.07,5.74,8.86,8.86,0,0,0,3.21,4A9,9,0,0,0,231.69,220.61Z" transform="translate(-170.34 -173.02)"/><path class="cls-1" d="M264.09,188h5.76l-1.73,8.07a20.54,20.54,0,0,1,4.64-4.57,22.36,22.36,0,0,1,5.8-3,18.67,18.67,0,0,1,6.19-1.07,9.2,9.2,0,0,1,4.82,1.1,6.32,6.32,0,0,1,2.6,3.08,12.42,12.42,0,0,1,.79,4.61,23.75,23.75,0,0,1-.25,3.28c-.17,1.15-.38,2.34-.62,3.57l-4.75,22.3H281l4.46-20.84a23.76,23.76,0,0,0,.5-2.89,21.87,21.87,0,0,0,.15-2.46,6.78,6.78,0,0,0-1.3-4.6A4.8,4.8,0,0,0,281,193.1a11.55,11.55,0,0,0-5,1.29,19.31,19.31,0,0,0-5,3.45,17.78,17.78,0,0,0-3.75,5l-4.82,22.51h-6.34Z" transform="translate(-170.34 -173.02)"/><path class="cls-1" d="M299.44,220.32a7.47,7.47,0,0,1,.07-1c.05-.36.1-.71.14-1.05l5.4-25.27h-4.89l1.08-5h4.82l2.67-12.53h6.33L312.4,188h8l-1.08,5h-7.92l-5,23.33c-.05.19-.08.37-.11.54a4.63,4.63,0,0,0,0,.54,2.52,2.52,0,0,0,.93,2.19,3.81,3.81,0,0,0,2.31.69,8.27,8.27,0,0,0,2.34-.33,18.15,18.15,0,0,0,2-.68c.57-.24,1-.43,1.29-.58l.36,5a12.5,12.5,0,0,1-2.3,1.16,17.27,17.27,0,0,1-3.24.9,21.69,21.69,0,0,1-3.74.32,8.09,8.09,0,0,1-4.83-1.4A5,5,0,0,1,299.44,220.32Z" transform="translate(-170.34 -173.02)"/><path class="cls-1" d="M334.86,226.08a12.26,12.26,0,0,1-7.2-2.11,13.48,13.48,0,0,1-4.61-5.64,18.89,18.89,0,0,1-1.58-7.76,22.67,22.67,0,0,1,1.69-8.65,25.35,25.35,0,0,1,4.61-7.39,22.87,22.87,0,0,1,6.66-5.18,16.84,16.84,0,0,1,7.85-1.93,11,11,0,0,1,7.2,2.35,12.61,12.61,0,0,1,4,5.72l1.66-7.5h6.33l-6.33,29.34a4.68,4.68,0,0,0-.11.5,2,2,0,0,0,0,.42q0,1.27,1.59,1.35l-1.16,5.47c-.53.05-1,.11-1.4.18a6.71,6.71,0,0,1-1.12.11,4.63,4.63,0,0,1-3.06-.89,2.81,2.81,0,0,1-1-2.2,7.21,7.21,0,0,1,.07-1c.05-.36.12-.8.22-1.3s.21-1,.36-1.65a20.62,20.62,0,0,1-6.81,5.65A16.88,16.88,0,0,1,334.86,226.08Zm2.74-5.47A10.4,10.4,0,0,0,341,220a17.2,17.2,0,0,0,3.6-1.78,17.39,17.39,0,0,0,3.2-2.67,11,11,0,0,0,2.16-3.23l2.23-10.72a9.47,9.47,0,0,0-1.65-4.38,10.86,10.86,0,0,0-3.35-3.13,8.13,8.13,0,0,0-4.21-1.17,11.67,11.67,0,0,0-5.69,1.46,16.63,16.63,0,0,0-4.72,3.88,20,20,0,0,0-3.24,5.38,15.89,15.89,0,0,0-1.18,5.95,13,13,0,0,0,1.15,5.56,9.8,9.8,0,0,0,3.27,4A8.48,8.48,0,0,0,337.6,220.61Z" transform="translate(-170.34 -173.02)"/><path class="cls-1" d="M366.69,220.32a7.47,7.47,0,0,1,.07-1c0-.36.09-.71.14-1.05L372.3,193h-4.89l1.08-5h4.82L376,175.46h6.34L379.65,188h8l-1.08,5h-7.92l-5,23.33a4,4,0,0,0-.11.54,4.63,4.63,0,0,0,0,.54,2.52,2.52,0,0,0,.93,2.19,3.77,3.77,0,0,0,2.31.69,8.27,8.27,0,0,0,2.34-.33,18.15,18.15,0,0,0,2-.68c.57-.24,1-.43,1.29-.58l.36,5a12.5,12.5,0,0,1-2.3,1.16,17.27,17.27,0,0,1-3.24.9,21.72,21.72,0,0,1-3.75.32,8.06,8.06,0,0,1-4.82-1.4A5,5,0,0,1,366.69,220.32Z" transform="translate(-170.34 -173.02)"/><path class="cls-1" d="M391,220.32a7.47,7.47,0,0,1,.07-1q.07-.54.15-1.05l5.4-25.27h-4.9l1.08-5h4.83l2.66-12.53h6.34L404,188h8l-1.08,5H403l-5,23.33a4,4,0,0,0-.11.54,3.12,3.12,0,0,0,0,.54,2.5,2.5,0,0,0,.94,2.19,3.76,3.76,0,0,0,2.3.69,8.17,8.17,0,0,0,2.34-.33,17.44,17.44,0,0,0,2-.68c.58-.24,1-.43,1.3-.58l.36,5a13,13,0,0,1-2.31,1.16,17.27,17.27,0,0,1-3.24.9,21.69,21.69,0,0,1-3.74.32,8,8,0,0,1-4.82-1.4A5,5,0,0,1,391,220.32Z" transform="translate(-170.34 -173.02)"/><path class="cls-1" d="M420.25,188h6.34l-8,37.37h-6.34Zm3.17-15h6.34l-1.66,7.92h-6.33Z" transform="translate(-170.34 -173.02)"/></svg>