<svg id="Livello_1" data-name="Livello 1" xmlns="http://www.w3.org/2000/svg" viewBox="0 0 202.17 53.06"><defs><style>.cls-1{fill:#1d1d1b;}</style></defs><path class="cls-1" d="M208.94,87.84h6.48l-9.65,45.36h26.85L231.4,139H198.06Z" transform="translate(-198.06 -86.62)"/><path class="cls-1" d="M250.69,139.68a12.26,12.26,0,0,1-7.2-2.11,13.38,13.38,0,0,1-4.6-5.64,18.73,18.73,0,0,1-1.59-7.76,22.86,22.86,0,0,1,1.69-8.65,25.35,25.35,0,0,1,4.61-7.39,23.35,23.35,0,0,1,6.66-5.19,17,17,0,0,1,7.85-1.92,11,11,0,0,1,7.2,2.35,12.61,12.61,0,0,1,4,5.72l1.66-7.5h6.33L271,130.93a4.68,4.68,0,0,0-.11.5,3,3,0,0,0,0,.42q0,1.28,1.59,1.35l-1.15,5.47q-.8.08-1.41.18a6.7,6.7,0,0,1-1.11.11,4.6,4.6,0,0,1-3.06-.89,2.79,2.79,0,0,1-1-2.2,9.41,9.41,0,0,1,.07-1c0-.36.12-.8.22-1.3s.22-1.05.36-1.65a20.69,20.69,0,0,1-6.8,5.65A17,17,0,0,1,250.69,139.68Zm2.74-5.47a10.57,10.57,0,0,0,3.42-.64,17.37,17.37,0,0,0,6.8-4.45,11,11,0,0,0,2.16-3.23l2.24-10.72a9.6,9.6,0,0,0-1.66-4.38,10.74,10.74,0,0,0-3.35-3.13,8.13,8.13,0,0,0-4.21-1.17,11.59,11.59,0,0,0-5.69,1.46,16.59,16.59,0,0,0-4.71,3.88,19.53,19.53,0,0,0-3.24,5.38,15.71,15.71,0,0,0-1.19,6,13,13,0,0,0,1.15,5.56,9.82,9.82,0,0,0,3.28,4A8.43,8.43,0,0,0,253.43,134.21Z" transform="translate(-198.06 -86.62)"/><path class="cls-1" d="M283.38,101.59h6.55l4.25,31.86q2.88-4,5.4-8t4.61-8q2.08-4,3.71-8a63.71,63.71,0,0,0,2.63-8h6a83.79,83.79,0,0,1-7.84,18.65A154.7,154.7,0,0,1,296.2,139h-6.84Z" transform="translate(-198.06 -86.62)"/><path class="cls-1" d="M331.77,139.68a15.19,15.19,0,0,1-8.36-2.14,13.22,13.22,0,0,1-4.93-5.72,18.8,18.8,0,0,1-1.62-7.86,22.88,22.88,0,0,1,1.73-8.87,23.5,23.5,0,0,1,4.79-7.32,22.24,22.24,0,0,1,7.09-5A20.92,20.92,0,0,1,339,101a15.29,15.29,0,0,1,8.39,2.14,13.38,13.38,0,0,1,5,5.72,18.67,18.67,0,0,1,1.65,7.93,22.62,22.62,0,0,1-1.72,8.79,23.14,23.14,0,0,1-4.83,7.33,22.67,22.67,0,0,1-7.12,5A21.12,21.12,0,0,1,331.77,139.68Zm1.08-5.47a12.93,12.93,0,0,0,5.43-1.21,14.61,14.61,0,0,0,4.68-3.46,17.55,17.55,0,0,0,3.28-5.24,17.24,17.24,0,0,0,1.22-6.55,14.68,14.68,0,0,0-1.08-5.81,9.08,9.08,0,0,0-3.17-4,8.77,8.77,0,0,0-5.18-1.46,12.33,12.33,0,0,0-5.4,1.24,15.68,15.68,0,0,0-4.68,3.5,16.84,16.84,0,0,0-3.31,5.27,17.37,17.37,0,0,0-1.23,6.59,14.51,14.51,0,0,0,1.08,5.74,8.79,8.79,0,0,0,3.21,3.95A9,9,0,0,0,332.85,134.21Z" transform="translate(-198.06 -86.62)"/><path class="cls-1" d="M365.24,101.59h5.91l-1.87,8.66a25.88,25.88,0,0,1,6.22-6.3,12.14,12.14,0,0,1,6.95-2.43c.43,0,.81,0,1.12,0a5.28,5.28,0,0,1,.75.1l-1.15,5.48a17.23,17.23,0,0,0-14.69,8.77L363.59,139h-6.34Z" transform="translate(-198.06 -86.62)"/><path class="cls-1" d="M390.73,101.59h6.34l-8,37.37h-6.34Zm3.17-15h6.34l-1.66,7.92h-6.34Z" transform="translate(-198.06 -86.62)"/></svg>