<svg id="Livello_1" data-name="Livello 1" xmlns="http://www.w3.org/2000/svg" viewBox="0 0 95.18 51.84"><defs><style>.cls-1{fill:#1d1d1b;}</style></defs><path class="cls-1" d="M260.7,1.44h6.84l10.23,33.19,24.4-33.19h6.77L298.07,52.56h-6.48L300,13,277.77,43.34h-3.68L264.73,13l-8.42,39.53h-6.48Z" transform="translate(-249.83 -1.44)"/><path class="cls-1" d="M324.49,53.28a14.54,14.54,0,0,1-8-2.11,13.59,13.59,0,0,1-5-5.68,18.16,18.16,0,0,1-1.73-8,22.38,22.38,0,0,1,1.7-8.62,23.25,23.25,0,0,1,12-12.4,22,22,0,0,1,9-1.85A17.38,17.38,0,0,1,339,15.76a9.72,9.72,0,0,1,4.43,3.36A9.34,9.34,0,0,1,345,24.7a9.36,9.36,0,0,1-5,8.58q-5,2.94-15.48,2.94c-1.29,0-2.78,0-4.46-.11s-3.62-.21-5.83-.4l.86-4.32c2.11.1,3.93.19,5.44.29s2.91.14,4.21.14a31.92,31.92,0,0,0,8.64-.92,9.34,9.34,0,0,0,4.57-2.56,5.55,5.55,0,0,0,1.41-3.71,4.66,4.66,0,0,0-.9-3,5.39,5.39,0,0,0-2.52-1.71,11.67,11.67,0,0,0-3.86-.57,14.12,14.12,0,0,0-6.51,1.49,15.86,15.86,0,0,0-5,4.07,18.29,18.29,0,0,0-3.24,5.81,20.41,20.41,0,0,0-1.12,6.74,14.63,14.63,0,0,0,1,5.45,9.08,9.08,0,0,0,3.1,4.07,8.64,8.64,0,0,0,5.25,1.53A13.68,13.68,0,0,0,332,46.84a12.94,12.94,0,0,0,5-4.58l5.11,1.52a19,19,0,0,1-4.53,4.89,23.28,23.28,0,0,1-6.16,3.39A20,20,0,0,1,324.49,53.28Z" transform="translate(-249.83 -1.44)"/></svg>