<?xml version="1.0" encoding="utf-8"?>
<!-- Generator: Adobe Illustrator 24.2.3, SVG Export Plug-In . SVG Version: 6.00 Build 0)  -->
<svg version="1.1" id="Livello_1" xmlns="http://www.w3.org/2000/svg" xmlns:xlink="http://www.w3.org/1999/xlink" x="0px" y="0px"
	 viewBox="0 0 800 800" style="enable-background:new 0 0 800 800;" xml:space="preserve">
<style type="text/css">
	.st0{fill:#FFFFFF;}
</style>
<path class="st0" d="M400,366.7c92,0,166.7-74.6,166.7-166.7S492,33.3,400,33.3S233.3,108,233.3,200C233.4,292,308,366.6,400,366.7z
	 M400,100c55.2,0,100,44.8,100,100s-44.8,100-100,100s-100-44.8-100-100S344.8,100,400,100z M100,733.3V600
	c0.1-92,74.7-166.6,166.7-166.7h266.7c92,0.1,166.6,74.7,166.7,166.7v133.3c0,18.4-14.9,33.3-33.3,33.3s-33.3-14.9-33.3-33.3V600
	c0-55.2-44.8-100-100-100H266.7c-55.2,0-100,44.8-100,100v133.3c0,18.4-14.9,33.3-33.3,33.3S100,751.7,100,733.3z"/>
</svg>
